<svg width="34" height="36" viewBox="0 0 34 36" fill="none" xmlns="http://www.w3.org/2000/svg">
<path fill-rule="evenodd" clip-rule="evenodd" d="M4.73483 7.22283L5.77947 5.94911L5.80204 6.06088C6.09677 7.52077 6.24521 9.00593 6.24521 10.4947V11.9472L6.5253 11.0223C6.80223 10.1078 6.91792 9.15281 6.86726 8.19935L6.71095 5.25702L9.27249 2.71935L9.7067 2.34297C10.6428 1.5315 11.7773 0.977304 12.997 0.735632C14.0786 0.52133 15.1864 0.467663 16.2839 0.576394L16.9571 0.643086L17.7323 0.771082C18.0414 0.822116 18.2125 1.15488 18.0723 1.43254L17.6817 2.20654C17.3583 2.84721 17.19 3.55366 17.19 4.26995V4.95773C17.19 5.30972 17.2336 5.66039 17.3198 6.00187L17.4147 6.37819C17.5715 6.99952 17.9194 7.55718 18.4103 7.97398C18.9753 8.45375 19.6949 8.71746 20.439 8.71746H20.683L20.2173 9.40955L20.1494 9.51041C19.89 9.89592 19.7516 10.3489 19.7516 10.8122C19.7516 11.4048 19.9077 11.9872 20.2044 12.5017L20.3708 12.79C20.578 13.1493 20.8327 13.4797 21.1281 13.7723L21.5637 14.2038C22.0541 14.6896 22.6685 15.0343 23.3413 15.2009C23.8909 15.337 24.4642 15.3506 25.0198 15.2405L25.3404 15.177L25.7085 16.1493C25.9263 16.7248 26.266 17.2474 26.7046 17.682C27.0349 18.0092 27.4163 18.2815 27.8341 18.4885L29.532 19.3295L27.1181 21.169C26.7111 21.4792 26.2629 21.7323 25.7862 21.9212L24.176 22.5592H24.9042C25.5016 22.5592 26.095 22.4638 26.6618 22.2767C27.0209 22.1581 27.3608 21.9886 27.671 21.7736L28.9307 20.9C29.3308 20.6225 29.7057 20.3109 30.051 19.9688L30.5599 19.4646C30.6473 19.3781 30.7657 19.3295 30.8893 19.3295H31.9346C32.1901 19.3295 32.4399 19.2546 32.6524 19.1142C32.8954 18.9537 33.1808 18.8681 33.4728 18.8681H33.6843C33.8346 18.8681 33.9565 18.9888 33.9565 19.1378V19.7909V21.5879C33.9565 22.2319 33.8593 22.8722 33.6682 23.4876L33.2374 24.8744C33.0963 25.3289 32.9049 25.7667 32.6667 26.1796L31.1621 28.7881L29.4064 31.0491C29.0264 31.5386 28.5774 31.9715 28.0733 32.3347L26.9313 33.1576C26.5 33.4683 25.9908 33.6559 25.4593 33.6998L24.0588 33.8154C23.6978 33.8452 23.3786 34.0593 23.2165 34.3803C23.0876 34.6358 22.8448 34.8162 22.5611 34.8673L20.4502 35.2476L17.6557 35.4783H16.1247C15.4399 35.4783 14.7573 35.4012 14.0901 35.2487C12.746 34.9414 11.4435 34.4774 10.2098 33.8663L9.69875 33.6131C8.79482 33.1654 7.92537 32.6524 7.09744 32.0782L6.01234 31.3257L5.42781 30.8045C4.27529 29.7769 3.3277 28.5442 2.63427 27.1702C2.09582 26.1034 1.74442 24.9536 1.59508 23.77L1.35498 21.8672L1.70766 22.333C1.93691 22.6358 2.21182 22.9019 2.52274 23.1219L3.68366 23.9434L3.52975 23.5622C3.32243 23.0488 3.06184 22.558 2.75219 22.0979L1.69532 21.0508C1.01638 20.3782 0.541899 19.5301 0.325996 18.6033L0.126946 17.7488C0.0156276 17.2709 0.0156274 16.7742 0.126946 16.2963L0.577054 14.364C0.629783 14.1377 0.70701 13.9176 0.807395 13.7076L1.40625 12.4552C2.30031 10.5853 3.41784 8.82863 4.73483 7.22283ZM11.2551 7.18745C11.0523 6.56523 11.1858 5.8574 11.6615 5.34422L11.9338 5.05055L12.0035 4.98144C12.7146 4.27702 13.6343 3.81623 14.6285 3.66637C15.3307 3.5937 15.9626 4.09086 16.0502 4.78492L16.056 4.83093C16.102 5.19612 16.0988 5.56577 16.0462 5.9301L15.9964 6.27585C15.9279 6.75072 15.7599 7.20615 15.5033 7.61292L15.2474 8.01852C14.9244 8.53055 14.3579 8.84161 13.7484 8.84164C13.4757 8.84165 13.2068 8.77916 12.9625 8.65909C12.9747 8.67858 12.9866 8.69804 12.9984 8.71747C13.2217 9.08612 14.0596 9.3354 14.6285 9.40956C14.8079 9.43295 14.9436 9.44159 15.0687 9.44954C15.3403 9.46682 15.5618 9.48091 16.0714 9.63579C15.6645 9.7164 15.0211 9.77691 14.4002 9.69598L14.3791 9.69323C13.7682 9.61367 12.8644 9.49596 12.5326 8.94817L12.5004 8.89478C12.3423 8.63269 12.1649 8.3387 11.8855 8.08283C11.843 8.04969 11.8018 8.01472 11.7622 7.97801C11.653 7.89196 11.5297 7.81187 11.3886 7.74083L11.2194 7.65549C10.5577 7.32147 9.41303 6.74371 9.03963 6.6412C9.15814 6.67374 9.35531 6.71568 9.59245 6.76613C10.09 6.87197 10.7633 7.01523 11.2551 7.18745ZM16.7243 19.7625V20.0178C16.7243 20.3312 16.8499 20.6317 17.0736 20.8533C17.2972 21.0748 17.6006 21.1993 17.9169 21.1993H18.2177C18.4618 21.1993 18.7037 21.1532 18.9303 21.0633L19.0834 21.0027C19.5186 20.8302 19.8907 20.5311 20.1507 20.1448L20.3025 19.9192C20.5462 19.5571 20.6346 19.114 20.5485 18.6873C20.4844 18.3697 20.3268 18.078 20.0956 17.849L20.0127 17.7668C19.6964 17.4535 19.2674 17.2775 18.8201 17.2775C18.3728 17.2775 17.9438 17.4535 17.6275 17.7668L17.4488 17.9438C17.1282 18.2615 16.9097 18.666 16.8208 19.1064L16.7595 19.4098C16.7361 19.5259 16.7243 19.6441 16.7243 19.7625ZM12.7655 32.1463V32.2447C12.7655 32.5581 12.8912 32.8586 13.1148 33.0802C13.3385 33.3017 13.6418 33.4262 13.9581 33.4262H14.2589C14.503 33.4262 14.7449 33.3801 14.9716 33.2903L15.3648 33.1344C15.6447 33.0235 15.8885 32.8384 16.0694 32.5995C16.3389 32.2435 16.4496 31.7937 16.3758 31.3547L16.363 31.2789C16.296 30.8803 16.0722 30.5194 15.7459 30.2769C15.4763 30.0766 15.1449 29.9658 14.8079 29.9658C14.3948 29.9658 13.9986 30.1283 13.7065 30.4177L13.4935 30.6288C13.3198 30.8008 13.1753 30.9995 13.0654 31.2171L12.9167 31.5117C12.8173 31.7088 12.7655 31.926 12.7655 32.1463ZM6.08484 21.4472L6.20506 21.0884C6.23177 21.0086 6.26423 20.9309 6.30216 20.8557C6.45227 20.5583 6.68181 20.3136 6.95994 20.144C5.55118 20.3148 4.80402 20.9419 4.57976 21.2974C5.03253 20.5797 6.28273 19.232 9.32899 19.7978C9.42787 19.8223 9.56506 19.8232 9.74008 19.7941C10.1114 19.7324 10.5757 19.5495 11.028 19.3276C11.4764 19.1076 11.8953 18.858 12.1706 18.6762C11.9509 19.1014 11.6669 19.529 11.2347 19.741C10.9115 19.8996 10.5643 20.0483 10.2348 20.1486C11.0114 20.8605 11.9813 21.3002 12.917 21.5584C13.9709 21.8493 14.9628 21.9045 15.5451 21.8677C15.4089 21.8763 15.243 21.8953 15.0554 21.9168C14.3717 21.9952 13.4003 22.1066 12.5326 21.8672C11.8543 21.68 11.2498 21.453 10.6735 21.0807C10.6988 21.2029 10.7097 21.3278 10.7057 21.4531L10.703 21.5395C10.6821 22.1946 10.3429 22.7993 9.79242 23.1629L9.69968 23.2241C9.41846 23.4099 9.09882 23.5308 8.76424 23.5782L8.16457 23.6631C7.82247 23.7115 7.47354 23.67 7.15269 23.5429L7.04821 23.5015C6.6802 23.3557 6.37666 23.0847 6.19199 22.7373C5.98063 22.3396 5.94193 21.8738 6.08484 21.4472ZM25.5161 26.038L25.6756 26.038C25.9781 26.038 26.2765 26.1078 26.5471 26.2418L27.2141 26.5722C27.4253 26.6768 27.6185 26.815 27.7855 26.9804C28.3192 27.5096 28.5284 28.2581 28.382 28.9582C28.8578 28.5988 29.3573 28.2863 29.9977 28.096C29.4555 28.5138 29.038 28.9367 28.6381 29.3417C27.9267 30.0622 27.2711 30.7263 26.0686 31.2045C25.8828 31.2825 25.6919 31.3493 25.4969 31.4045L25.4831 31.4084C25.3847 31.4382 25.2831 31.467 25.178 31.4947L24.8747 31.5806L24.8276 31.5923C24.7413 31.6136 24.6551 31.6277 24.5696 31.6348C24.1396 31.7205 23.6587 31.7908 23.1165 31.8434C21.0862 32.8569 19.1903 33.8684 18.0022 34.5262C18.4199 34.295 18.8862 33.953 19.4078 33.5705C20.1611 33.0182 21.0296 32.3812 22.033 31.8715C21.7799 31.8914 21.4707 31.8847 21.1633 31.8781L21.1627 31.8781C21.0098 31.8748 20.8575 31.8715 20.7128 31.8715C20.4798 31.8715 19.3588 31.9057 18.98 32.0294C19.3775 31.8996 20.0511 31.7142 20.7913 31.5762C21.5043 31.4432 22.2955 31.351 22.9658 31.402C23.156 31.3882 23.3386 31.3704 23.5141 31.3489C23.1463 31.0916 22.887 30.6822 22.8423 30.1954C22.8004 29.7387 22.8442 29.2782 22.9713 28.8372L22.9873 28.782C23.1572 28.1928 23.4436 27.643 23.8298 27.1643L24.2531 26.6397C24.5599 26.2595 25.0246 26.0381 25.5161 26.038ZM5.34113 14.0327L5.29846 14.1601C5.24513 14.3192 5.25957 14.4931 5.33845 14.6415C5.40735 14.7711 5.52063 14.8722 5.65795 14.9266L5.69694 14.9421C5.81667 14.9895 5.94688 15.005 6.07454 14.9869L6.29831 14.9553C6.42316 14.9376 6.54244 14.8924 6.64738 14.8231L6.68199 14.8003C6.88741 14.6646 7.01398 14.439 7.02177 14.1945L7.02242 14.1741C7.02522 14.0863 7.0102 13.9989 6.97827 13.917C6.8904 13.6916 6.68458 13.5323 6.44256 13.5023L6.31722 13.4868C6.20053 13.4724 6.0821 13.4814 5.96902 13.5134L5.85345 13.5461C5.6487 13.6041 5.47789 13.7445 5.38266 13.9332C5.36644 13.9653 5.35256 13.9986 5.34113 14.0327ZM17.422 11.0772C17.3945 11.454 16.8156 12.3602 16.2414 12.6873C15.6263 13.0378 14.4649 13.0039 12.5326 12.6393C14.6285 13.3314 15.7187 13.5174 16.4736 13.0873C17.2405 12.6504 17.4229 12.1779 17.4229 11.4858L17.422 11.0772ZM17.422 11.0772C17.4234 11.0582 17.4234 11.0406 17.4219 11.0244L17.422 11.0772ZM17.9132 26.3208C18.2108 26.1299 18.465 25.8793 18.6831 25.6025C16.7461 26.998 15.1186 26.179 14.5603 25.6259C14.7595 26.0392 15.0036 26.4471 15.381 26.7117C15.8997 27.0754 16.5792 27.1766 17.9132 26.3208ZM4.54319 26.9684C4.51852 27.3276 4.50207 27.5671 4.53447 27.8253C4.54211 27.8861 4.54994 27.9486 4.55927 28.0133C4.58998 28.2262 4.63844 28.4572 4.76489 28.6994C4.89162 28.9421 5.08938 29.1825 5.40115 29.4296C5.94096 29.8574 6.57822 30.0122 7.15218 30.1516L7.1527 30.1517L7.15321 30.1518C7.25025 30.1754 7.34547 30.1985 7.43811 30.2225C7.58208 30.2597 7.72543 30.2898 7.86921 30.3201C8.38039 30.4276 8.89712 30.5363 9.46627 30.9671C8.95117 30.2016 8.16907 29.9647 7.48591 29.7881C7.38139 29.7611 7.27834 29.7358 7.17687 29.7109C6.60067 29.5695 6.14519 29.4284 5.69209 29.0693C5.42169 28.855 5.27015 28.6629 5.17857 28.4874C5.08671 28.3115 5.04784 28.1388 5.02033 27.948C5.01267 27.8949 5.00602 27.8399 4.99915 27.7831C4.95706 27.4351 4.84799 27.1732 4.56858 26.5734C4.56018 26.721 4.55124 26.8512 4.54319 26.9684ZM11.7467 25.493C11.6617 25.427 11.5765 25.3608 11.4909 25.2957C11.0876 24.9894 10.6148 24.7468 10.204 24.8451C10.6417 24.7404 11.0488 24.7203 11.4213 24.8227C12.0347 24.9912 12.3835 25.5929 12.6785 26.1517C12.3487 25.9607 12.0476 25.7268 11.7467 25.493ZM15.0097 16.0737C14.6551 15.9319 14.3003 15.7902 13.9298 15.6975C14.37 16.153 14.8738 16.635 15.5103 16.6281C15.8969 16.6238 16.2823 16.4925 16.6734 16.2714C16.3064 16.4789 15.7841 16.376 15.3108 16.1928C15.2104 16.1539 15.1103 16.1139 15.0103 16.0739L15.0097 16.0737ZM11.1354 11.0244C10.9875 11.3176 10.7532 11.5293 10.5198 11.7402C10.2734 11.9629 10.0279 12.1847 9.88571 12.5008C9.83682 12.6095 9.78022 12.7459 9.71279 12.9172C9.71279 12.6822 9.67527 12.4568 9.64006 12.2453C9.62798 12.1727 9.61615 12.1016 9.60622 12.0325C9.49893 11.2852 10.3736 11.0244 11.1354 11.0244ZM10.4978 32.9802C10.2046 32.9453 9.94211 32.9141 9.73823 32.6628C10.3864 32.2661 11.2275 32.1005 11.3742 32.8412C11.4135 33.0399 11.4698 33.2569 11.6012 33.4675C11.2418 33.1994 11.0379 33.0833 10.902 33.048C10.7629 33.0118 10.6274 32.9957 10.4978 32.9802ZM18.4944 2.58062L18.495 2.57845C18.5267 2.46904 18.5577 2.36204 18.5872 2.25798C18.1884 5.25703 19.9068 7.4102 20.9159 7.79469C17.1729 7.14033 17.9404 4.49227 18.4944 2.58062ZM21.3816 8.71748C20.7606 9.56337 20.2178 11.1982 21.3816 12.6393C22.298 13.7741 22.989 14.0158 25.6719 13.8036C25.7249 13.8031 25.7699 13.7993 25.8061 13.7928C25.7608 13.7965 25.7161 13.8002 25.6719 13.8036C25.0987 13.8099 23.592 13.445 22.3131 12.1779C20.8623 10.7407 21.1097 9.40957 21.3816 8.71748ZM32.5592 18.176C29.9977 18.4067 25.8061 18.176 26.5047 14.0235C26.605 14.1892 26.7006 14.3835 26.8052 14.5962C27.4285 15.8633 28.3716 17.7809 32.5592 18.176Z" fill="#B55119"/>
</svg>
